<svg width="24" height="22" viewBox="0 0 24 22" fill="none" xmlns="http://www.w3.org/2000/svg">
<g clip-path="url(#clip0_173_1245)">
<path d="M11.5523 2.7742C11.7361 2.40425 12.2639 2.40426 12.4477 2.7742L14.7953 7.49724C15.0144 7.93807 15.4358 8.24333 15.923 8.31405L21.1628 9.07464C21.5739 9.13431 21.7372 9.64007 21.4386 9.92884L17.6575 13.5862C17.3008 13.9313 17.1378 14.4305 17.2223 14.9197L18.1156 20.0924C18.1861 20.5004 17.7585 20.8123 17.3915 20.6206L12.6944 18.1675C12.2593 17.9403 11.7407 17.9403 11.3056 18.1675L6.60853 20.6206C6.24151 20.8123 5.81389 20.5004 5.88436 20.0924L6.77769 14.9197C6.86216 14.4305 6.69921 13.9313 6.34245 13.5862L2.56136 9.92884C2.26283 9.64007 2.42613 9.13431 2.83716 9.07464L8.07698 8.31405C8.56416 8.24333 8.98562 7.93807 9.20473 7.49724L11.5523 2.7742Z" stroke="#4C7C7D" stroke-linecap="round" stroke-linejoin="round"/>
<path d="M14.9389 7.88808C14.979 7.96152 15 8.04385 15 8.1275V18.7417C15 19.1007 14.633 19.3427 14.303 19.2013L11.7232 18.0957C11.5823 18.0353 11.4214 18.0429 11.2868 18.1163L6.8873 20.516C6.52386 20.7143 6.09074 20.4102 6.15369 20.0011L6.96147 14.7504C6.98569 14.593 6.93346 14.4335 6.82084 14.3208L2.64988 10.1499C2.36969 9.86971 2.51121 9.39047 2.89867 9.30744L8.77567 8.04808C8.91809 8.01756 9.04011 7.92646 9.10986 7.7986L11.5611 3.30474C11.7506 2.95731 12.2494 2.95731 12.4389 3.30474L14.9389 7.88808Z" fill="#4C7C7D"/>
</g>
<defs>
<clipPath id="clip0_173_1245">
<rect width="22.5" height="21.25" fill="white" transform="translate(0.75 0.75)"/>
</clipPath>
</defs>
</svg>
